HIERARCHY
ROOT Hips
{
	OFFSET 0.00000 0.00000 0.00000
	CHANNELS 6 Xposition Yposition Zposition Zrotation Yrotation Xrotation 
	JOINT LHipJoint
	{
		OFFSET 0 0 0
		CHANNELS 3 Zrotation Yrotation Xrotation
		JOINT LeftHip
		{
			OFFSET 1.58895 -1.83665 0.71753
			CHANNELS 3 Zrotation Yrotation Xrotation
			JOINT LeftKnee
			{
				OFFSET 2.50528 -6.88321 0.00000
				CHANNELS 3 Zrotation Yrotation Xrotation
				JOINT LeftAnkle
				{
					OFFSET 2.63244 -7.23257 0.00000
					CHANNELS 3 Zrotation Yrotation Xrotation
					JOINT LeftToe
					{
						OFFSET 0.23691 -0.65090 1.72750
						CHANNELS 3 Zrotation Yrotation Xrotation
						End Site
						{
							OFFSET 0.00000 -0.00000 0.92561
						}
					}
				}
			}
		}
	}
	JOINT RHipJoint
	{
		OFFSET 0 0 0
		CHANNELS 3 Zrotation Yrotation Xrotation
		JOINT RightHip
		{
			OFFSET -1.51435 -1.83665 0.71753
			CHANNELS 3 Zrotation Yrotation Xrotation
			JOINT RightKnee
			{
				OFFSET -2.54551 -6.99375 0.00000
				CHANNELS 3 Zrotation Yrotation Xrotation
				JOINT RightAnkle
				{
					OFFSET -2.66027 -7.30903 0.00000
					CHANNELS 3 Zrotation Yrotation Xrotation
					JOINT RightToe
					{
						OFFSET -0.22981 -0.63138 2.03959
						CHANNELS 3 Zrotation Yrotation Xrotation
						End Site
						{
							OFFSET -0.00000 -0.00000 1.07060
						}
					}
				}
			}
		}
	}
	JOINT lowerback
	{
		OFFSET 0 0 0
		CHANNELS 3 Zrotation Yrotation Xrotation
		JOINT Chest
		{
			OFFSET -0.02651 1.86275 -0.11152
			CHANNELS 3 Zrotation Yrotation Xrotation
			JOINT Chest2
			{
				OFFSET 0.01019 1.86224 0.04087
				CHANNELS 3 Zrotation Yrotation Xrotation
				JOINT lowerneck
				{
					OFFSET 0 0 0
					CHANNELS 3 Zrotation Yrotation Xrotation
					JOINT Neck
					{
						OFFSET -0.01926 1.80512 0.08867
						CHANNELS 3 Zrotation Yrotation Xrotation
						JOINT Head
						{
							OFFSET 0.05516 1.76451 -0.38475
							CHANNELS 3 Zrotation Yrotation Xrotation
							End Site
							{
								OFFSET 0.01592 1.82587 -0.14001
							}
						}
					}
				}
				JOINT LeftCollar
				{
					OFFSET 0 0 0
					CHANNELS 3 Zrotation Yrotation Xrotation
					JOINT LeftShoulder
					{
						OFFSET 3.47116 1.51376 0.14491
CHANNELS 3 Zrotation Xrotation Yrotation
						JOINT LeftElbow
						{
OFFSET 0 -4.780950 0.000000
CHANNELS 3 Zrotation Xrotation Yrotation
							JOINT LeftWrist
							{
OFFSET 0 -3.586150 -0.000000
CHANNELS 3 Zrotation Xrotation Yrotation
								JOINT lhand
								{
									OFFSET 0 0 0
CHANNELS 3 Zrotation Xrotation Yrotation
									JOINT LFingers
									{
OFFSET 0 -0.659810 0.000000
CHANNELS 3 Zrotation Xrotation Yrotation
										End Site
										{
OFFSET 0 -0.531960 0.000000
										}
									}
								}
								JOINT LThumb
								{
OFFSET 0 0.000000 0.000000
CHANNELS 3 Zrotation Xrotation Yrotation
									End Site
									{
OFFSET 0 -0.540080 0.540080
									}
								}
							}
						}
					}
				}
				JOINT RightCollar
				{
					OFFSET 0 0 0
					CHANNELS 3 Zrotation Yrotation Xrotation
					JOINT RightShoulder
					{
						OFFSET -3.31725 1.61216 0.35156
CHANNELS 3 Zrotation Xrotation Yrotation
						JOINT RightElbow
						{
OFFSET 0 -4.489130 0.000000
CHANNELS 3 Zrotation Xrotation Yrotation
							JOINT RightWrist
							{
OFFSET 0 -3.705100 0.000000
CHANNELS 3 Zrotation Xrotation Yrotation
								JOINT rhand
								{
									OFFSET 0 0 0
CHANNELS 3 Zrotation Xrotation Yrotation
									JOINT RFingers
									{
OFFSET 0 -0.449140 0.000000
CHANNELS 3 Zrotation Xrotation Yrotation
										End Site
										{
OFFSET 0 -0.362110 0.000000
										}
									}
								}
								JOINT RThumb
								{
OFFSET 0 0.000000 0.000000
CHANNELS 3 Zrotation Xrotation Yrotation
									End Site
									{
OFFSET 0 -0.367630 0.367630
									}
								}
							}
						}
					}
				}
			}
		}
	}
}
MOTION
Frames: 13
Frame Time: 0.008333333333333333
-0.618600 18.630800 5.899300 -4.082700 -4.758400 -0.968500 0.000000 0.000000 0.000000 -11.711700 -7.326600 1.293300 1.495100 7.724000 21.879000 2.055900 5.911400 -29.717100 7.981200 -16.105400 -52.495000 0.000000 0.000000 0.000000 0.000000 0.000000 0.000000 0.000000 0.000000 0.000000 -0.000000 -0.000000 0.000000 -0.000000 -0.000000 0.000000 1.428800 2.200700 2.292600 0.462000 2.999900 -1.573000 -0.465600 1.472300 -2.851100 1.286900 -1.799600 -12.548200 1.196400 -3.106600 22.687400 -0.165700 -1.214100 9.196700 0.000000 -0.000000 0.000000 -1.538700 12.886500 -24.485400 21.012000 -31.842400 6.056300 6.335900 12.771000 25.179400 0.000000 0.000000 0.000000 -7.125000 0.000000 0.000000 -14.118900 5.299600 -13.169700 0.000000 -0.000000 0.000000 0.960700 19.457100 25.970400 -24.292400 -35.472000 -7.875600 -5.015400 18.655700 37.244400 0.000000 0.000000 0.000000 7.125000 0.000000 -0.000000 36.262700 63.689200 -17.564000
-0.618001 18.631102 5.899198 -4.089846 -4.745574 -0.969670 0.000000 0.000000 0.000000 -11.708134 -7.357965 1.297463 1.497305 7.729511 21.895434 2.061913 5.883325 -29.740141 7.958042 -16.088357 -52.411491 0.000000 0.000000 0.000000 0.000000 0.000000 0.000000 0.000000 0.000000 0.000000 0.000000 0.000000 0.000000 0.000000 0.000000 0.000000 1.457069 2.208312 2.314384 0.451797 3.011422 -1.589580 -0.493648 1.477008 -2.878326 1.323221 -1.814464 -12.493660 1.145509 -3.120193 22.623707 -0.189758 -1.224241 9.162745 0.000000 0.000000 0.000000 -1.498003 12.923873 -24.561472 21.099997 -31.944913 6.102751 5.995391 12.623009 25.037932 0.000000 0.000000 0.000000 -7.125000 0.000000 0.000000 -14.322105 5.468209 -13.324844 0.000000 0.000000 0.000000 1.007155 19.472763 25.901623 -24.307130 -35.487332 -7.884118 -5.062797 18.694897 37.287473 0.000000 0.000000 0.000000 7.125000 0.000000 0.000000 36.269751 63.736015 -17.607274
-0.618204 18.631600 5.898493 -4.103673 -4.738018 -0.960787 0.000000 0.000000 0.000000 -11.688242 -7.377114 1.286186 1.498709 7.732921 21.905665 2.065723 5.860715 -29.752491 7.940745 -16.075459 -52.348900 0.000000 0.000000 0.000000 0.000000 0.000000 0.000000 0.000000 0.000000 0.000000 0.000000 0.000000 0.000000 0.000000 0.000000 0.000000 1.477577 2.211995 2.339674 0.450993 3.017899 -1.613590 -0.507903 1.479499 -2.916097 1.299366 -1.833663 -12.451834 1.178409 -3.148045 22.595773 -0.177032 -1.236470 9.146289 0.000000 0.000000 0.000000 -1.469239 12.945595 -24.582489 21.128803 -31.978386 6.118048 5.843492 12.596211 24.987970 0.000000 0.000000 0.000000 -7.125000 0.000000 0.000000 -14.412946 5.530426 -13.397595 0.000000 0.000000 0.000000 1.023339 19.491588 25.878937 -24.316101 -35.496801 -7.889401 -5.061805 18.693997 37.369126 0.000000 0.000000 0.000000 7.125000 0.000000 0.000000 36.374784 63.800280 -17.719109
-0.618803 18.631598 5.897393 -4.114683 -4.755679 -0.959069 0.000000 0.000000 0.000000 -11.664675 -7.349676 1.269533 1.500014 7.736135 21.915504 2.069154 5.818295 -29.751441 7.932407 -16.069331 -52.318864 0.000000 0.000000 0.000000 0.000000 0.000000 0.000000 0.000000 0.000000 0.000000 0.000000 0.000000 0.000000 0.000000 0.000000 0.000000 1.474289 2.211213 2.365845 0.464864 3.017828 -1.627004 -0.493396 1.479311 -2.945541 1.249743 -1.827862 -12.441630 1.224606 -3.139496 22.590952 -0.151893 -1.231845 9.144275 0.000000 0.000000 0.000000 -1.490035 12.944634 -24.505912 21.114264 -31.961459 6.110281 5.856915 12.642833 25.012430 0.000000 0.000000 0.000000 -7.125000 0.000000 0.000000 -14.405067 5.505469 -13.396721 0.000000 0.000000 0.000000 0.999114 19.504783 25.914864 -24.316302 -35.496903 -7.889501 -5.062678 18.708051 37.402951 0.000000 0.000000 0.000000 7.125000 0.000000 0.000000 36.417344 63.827221 -17.765421
-0.619099 18.631401 5.896700 -4.123191 -4.763390 -0.975771 0.000000 0.000000 0.000000 -11.661859 -7.366908 1.292418 1.501416 7.739637 21.925916 2.074488 5.817825 -29.785032 7.923296 -16.062571 -52.286043 0.000000 0.000000 0.000000 0.000000 0.000000 0.000000 0.000000 0.000000 0.000000 0.000000 0.000000 0.000000 0.000000 0.000000 0.000000 1.483563 2.212579 2.390151 0.471221 3.020727 -1.627587 -0.493250 1.480451 -2.959698 1.254628 -1.804054 -12.404391 1.245821 -3.109448 22.515922 -0.141106 -1.216354 9.111702 0.000000 0.000000 0.000000 -1.503180 12.928119 -24.447741 21.110891 -31.957622 6.108502 5.827088 12.686456 24.923960 0.000000 0.000000 0.000000 -7.125000 0.000000 0.000000 -14.422560 5.593908 -13.389139 0.000000 0.000000 0.000000 0.970645 19.513272 25.980811 -24.316390 -35.497085 -7.889537 -5.070457 18.673040 37.427755 0.000000 0.000000 0.000000 7.125000 0.000000 0.000000 36.441384 63.849080 -17.797019
-0.619003 18.631503 5.896698 -4.145166 -4.755317 -0.973481 0.000000 0.000000 0.000000 -11.635909 -7.351645 1.278412 1.502613 7.742433 21.934597 2.073540 5.819166 -29.779337 7.930582 -16.067935 -52.312058 0.000000 0.000000 0.000000 0.000000 0.000000 0.000000 0.000000 0.000000 0.000000 0.000000 0.000000 0.000000 0.000000 0.000000 0.000000 1.518328 2.218509 2.394055 0.472893 3.030274 -1.641685 -0.511919 1.484273 -2.974657 1.301397 -1.785857 -12.351167 1.307555 -3.105825 22.435088 -0.126518 -1.205583 9.074342 0.000000 0.000000 0.000000 -1.486620 12.922198 -24.443500 21.125234 -31.974270 6.116124 5.707267 12.750182 24.741690 0.000000 0.000000 0.000000 -7.125000 0.000000 0.000000 -14.493937 5.781212 -13.406656 0.000000 0.000000 0.000000 0.959400 19.533549 26.003363 -24.307988 -35.488274 -7.884718 -5.075453 18.632600 37.424939 0.000000 0.000000 0.000000 7.125000 0.000000 0.000000 36.432732 63.848226 -17.791491
-0.619206 18.631696 5.896596 -4.172608 -4.756458 -0.966849 0.000000 0.000000 0.000000 -11.589328 -7.289588 1.244363 1.503392 7.744382 21.940250 2.070108 5.787313 -29.740777 7.940835 -16.075555 -52.349127 0.000000 0.000000 0.000000 0.000000 0.000000 0.000000 0.000000 0.000000 0.000000 0.000000 0.000000 0.000000 0.000000 0.000000 0.000000 1.549440 2.225034 2.403793 0.478428 3.040696 -1.658596 -0.524832 1.488692 -2.996127 1.324291 -1.783466 -12.300930 1.369506 -3.119080 22.361364 -0.109852 -1.204698 9.040476 0.000000 0.000000 0.000000 -1.469924 12.927900 -24.449370 21.138962 -31.990156 6.123380 5.664609 12.777889 24.622767 0.000000 0.000000 0.000000 -7.125000 0.000000 0.000000 -14.519393 5.900171 -13.397763 0.000000 0.000000 0.000000 0.971464 19.542370 25.976893 -24.289614 -35.469114 -7.874008 -5.119399 18.686884 37.457884 0.000000 0.000000 0.000000 7.125000 0.000000 0.000000 36.430631 63.885925 -17.822167
-0.619484 18.631495 5.896386 -4.172523 -4.764364 -0.984073 0.000000 0.000000 0.000000 -11.591462 -7.294503 1.272468 1.502960 7.743404 21.937506 2.075421 5.768811 -29.764458 7.917787 -16.058466 -52.266162 0.000000 0.000000 0.000000 0.000000 0.000000 0.000000 0.000000 0.000000 0.000000 0.000000 0.000000 0.000000 0.000000 0.000000 0.000000 1.551264 2.231729 2.433202 0.479861 3.050475 -1.663188 -0.526285 1.493289 -3.017119 1.299531 -1.791467 -12.244156 1.357443 -3.117305 22.245688 -0.108297 -1.209409 8.989944 0.000000 0.000000 0.000000 -1.461527 12.922282 -24.447725 21.136929 -31.987801 6.122309 5.689140 12.741880 24.597630 0.000000 0.000000 0.000000 -7.125000 0.000000 0.000000 -14.504617 5.922331 -13.376863 0.000000 0.000000 0.000000 0.983393 19.545604 25.942826 -24.290531 -35.470041 -7.874533 -5.098533 18.749251 37.516536 0.000000 0.000000 0.000000 7.125000 0.000000 0.000000 36.527323 63.926538 -17.910037
-0.618795 18.631319 5.895779 -4.151409 -4.771171 -0.990857 0.000000 0.000000 0.000000 -11.624641 -7.320053 1.295765 1.501249 7.739274 21.924821 2.076124 5.787028 -29.778839 7.905114 -16.049007 -52.220098 0.000000 0.000000 0.000000 0.000000 0.000000 0.000000 0.000000 0.000000 0.000000 0.000000 0.000000 0.000000 0.000000 0.000000 0.000000 1.544932 2.237535 2.449581 0.481999 3.058332 -1.658364 -0.521543 1.497280 -3.021726 1.306688 -1.785732 -12.265358 1.247715 -3.083614 22.187237 -0.142834 -1.205515 8.971405 0.000000 0.000000 0.000000 -1.470434 12.891483 -24.441682 21.129528 -31.979185 6.118356 5.674303 12.690021 24.637926 0.000000 0.000000 0.000000 -7.125000 0.000000 0.000000 -14.513582 5.884600 -13.396483 0.000000 0.000000 0.000000 0.941276 19.536412 25.964317 -24.300010 -35.479902 -7.879990 -5.048073 18.730543 37.547097 0.000000 0.000000 0.000000 7.125000 0.000000 0.000000 36.617449 63.937010 -17.968999
-0.618612 18.632021 5.894994 -4.106945 -4.769839 -0.974448 0.000000 0.000000 0.000000 -11.674552 -7.333116 1.279672 1.499361 7.734601 21.910709 2.069733 5.824398 -29.758550 7.920146 -16.060161 -52.274505 0.000000 0.000000 0.000000 0.000000 0.000000 0.000000 0.000000 0.000000 0.000000 0.000000 0.000000 0.000000 0.000000 0.000000 0.000000 1.519846 2.253812 2.433924 0.466994 3.078202 -1.653409 -0.523103 1.507761 -3.007902 1.368320 -1.779807 -12.344628 1.143180 -3.066348 22.206262 -0.187680 -1.202541 8.989740 0.000000 0.000000 0.000000 -1.449010 12.861378 -24.489629 21.119161 -31.967189 6.112869 5.683497 12.657880 24.689798 0.000000 0.000000 0.000000 -7.125000 0.000000 0.000000 -14.508218 5.833543 -13.405748 0.000000 0.000000 0.000000 0.941479 19.499814 25.944987 -24.293169 -35.472772 -7.876039 -5.141515 18.732872 37.540830 0.000000 0.000000 0.000000 7.125000 0.000000 0.000000 36.515337 63.957394 -17.929372
-0.618983 18.632680 5.894783 -4.073514 -4.761243 -0.966828 0.000000 0.000000 0.000000 -11.707799 -7.339656 1.272888 1.498067 7.731320 21.901056 2.070833 5.820249 -29.763163 7.918240 -16.058783 -52.267626 0.000000 0.000000 0.000000 0.000000 0.000000 0.000000 0.000000 0.000000 0.000000 0.000000 0.000000 0.000000 0.000000 0.000000 0.000000 1.496568 2.267037 2.422591 0.454441 3.094387 -1.653610 -0.523273 1.516177 -3.001827 1.369402 -1.786593 -12.363551 1.165980 -3.081181 22.186439 -0.181960 -1.207120 8.986822 0.000000 0.000000 0.000000 -1.424141 12.850766 -24.528873 21.104776 -31.950440 6.105283 5.742759 12.653472 24.687048 0.000000 0.000000 0.000000 -7.125000 0.000000 0.000000 -14.472542 5.831056 -13.371236 0.000000 0.000000 0.000000 0.975332 19.480873 25.890441 -24.295701 -35.475414 -7.877477 -5.249038 18.756418 37.578679 0.000000 0.000000 0.000000 7.125000 0.000000 0.000000 36.456445 64.016529 -17.946330
-0.618482 18.632082 5.894274 -4.092170 -4.756898 -0.982622 0.000000 0.000000 0.000000 -11.686585 -7.326539 1.290458 1.497096 7.728985 21.893952 2.071686 5.795629 -29.755576 7.913842 -16.055576 -52.251867 0.000000 0.000000 0.000000 0.000000 0.000000 0.000000 0.000000 0.000000 0.000000 0.000000 0.000000 0.000000 0.000000 0.000000 0.000000 1.529120 2.265321 2.445871 0.470691 3.094242 -1.650545 -0.525712 1.515595 -3.010988 1.285899 -1.789355 -12.323049 1.288052 -3.092556 22.112783 -0.126952 -1.207696 8.957516 0.000000 0.000000 0.000000 -1.443512 12.843306 -24.516805 21.098436 -31.943062 6.101970 5.780379 12.637660 24.704208 0.000000 0.000000 0.000000 -7.125000 0.000000 0.000000 -14.449895 5.811026 -13.354591 0.000000 0.000000 0.000000 0.945790 19.479141 25.913321 -24.304051 -35.484136 -7.882398 -5.268346 18.716055 37.612959 0.000000 0.000000 0.000000 7.125000 0.000000 0.000000 36.481438 64.048662 -17.987358
-0.617988 18.631620 5.893568 -4.114519 -4.762252 -0.995623 0.000000 0.000000 0.000000 -11.663141 -7.320149 1.304094 1.497036 7.728692 21.892980 2.068452 5.797963 -29.735863 7.920705 -16.060577 -52.276431 0.000000 0.000000 0.000000 0.000000 0.000000 0.000000 0.000000 0.000000 0.000000 0.000000 0.000000 0.000000 0.000000 0.000000 0.000000 1.572161 2.268857 2.454338 0.485980 3.101053 -1.638059 -0.534385 1.518328 -3.001482 1.220500 -1.790996 -12.285529 1.391660 -3.102188 22.048226 -0.081180 -1.207736 8.931391 0.000000 0.000000 0.000000 -1.465149 12.823662 -24.524375 21.101864 -31.947136 6.103728 5.812891 12.625131 24.739273 0.000000 0.000000 0.000000 -7.125000 0.000000 0.000000 -14.430446 5.774111 -13.345807 0.000000 0.000000 0.000000 0.906172 19.451856 25.950592 -24.294239 -35.473907 -7.876715 -5.371877 18.708827 37.459663 0.000000 0.000000 0.000000 7.125000 0.000000 0.000000 36.179144 63.955699 -17.741145
